<?xml version="1.0" standalone="no"?>
<!DOCTYPE svg PUBLIC "-//W3C//DTD SVG 20010904//EN"
 "http://www.w3.org/TR/2001/REC-SVG-20010904/DTD/svg10.dtd">
<svg version="1.0" xmlns="http://www.w3.org/2000/svg"
 width="832.000000pt" height="800.000000pt" viewBox="0 0 832.000000 800.000000"
 preserveAspectRatio="xMidYMid meet">
<metadata>
Created by potrace 1.15, written by Peter Selinger 2001-2017
</metadata>
<g transform="translate(0.000000,800.000000) scale(0.100000,-0.100000)"
fill="#000000" stroke="none">
<path d="M3644 5972 c4 -28 13 -67 21 -86 8 -19 15 -46 15 -58 0 -20 -66 -162
-90 -193 -4 -5 -31 -55 -60 -110 -29 -55 -65 -122 -80 -150 -15 -27 -56 -102
-90 -165 -103 -188 -110 -202 -110 -215 0 -6 -13 -27 -30 -45 -16 -18 -30 -39
-30 -46 0 -7 -3 -14 -7 -16 -5 -1 -26 -39 -48 -83 -22 -44 -42 -82 -45 -85 -3
-3 -15 -25 -28 -50 -13 -25 -35 -65 -49 -90 -14 -25 -42 -76 -63 -115 -20 -38
-56 -106 -80 -150 -67 -125 -110 -205 -143 -265 -65 -118 -98 -179 -151 -285
-31 -60 -70 -135 -87 -165 -17 -30 -49 -89 -71 -130 -74 -138 -110 -205 -133
-245 -12 -22 -45 -83 -73 -135 -53 -101 -84 -159 -131 -243 -16 -29 -46 -83
-66 -122 -21 -38 -41 -74 -45 -80 -4 -5 -32 -57 -63 -115 -61 -119 -113 -215
-166 -310 -20 -36 -50 -92 -66 -125 -17 -33 -36 -65 -42 -73 -21 -22 -15 -32
16 -32 25 0 33 8 61 63 18 34 46 87 63 117 16 30 47 87 67 125 21 39 55 102
76 140 22 39 52 95 67 125 16 30 49 91 73 135 24 44 54 100 66 125 13 25 26
47 29 50 3 3 19 32 36 65 16 33 42 83 58 110 15 28 46 86 70 130 103 195 138
261 145 270 8 11 67 120 160 300 31 61 71 135 87 165 17 30 39 71 49 90 11 19
21 37 24 40 3 3 19 32 35 65 44 86 99 189 105 195 3 3 20 34 39 70 84 162 96
185 101 190 3 3 19 32 36 65 17 33 48 92 69 130 21 39 50 93 64 120 13 28 30
57 37 65 6 8 38 65 69 125 32 61 72 135 88 165 16 30 50 93 75 140 25 47 55
101 66 120 12 19 30 53 41 75 11 22 22 42 25 45 3 3 17 29 30 58 14 28 29 52
35 52 13 0 32 -59 41 -128 4 -29 11 -55 15 -58 18 -10 9 -81 -15 -125 -14 -24
-35 -64 -48 -89 -13 -25 -26 -46 -30 -48 -5 -2 -8 -8 -8 -13 0 -5 -21 -46 -46
-91 -26 -46 -60 -110 -77 -143 -17 -33 -33 -62 -36 -65 -3 -3 -24 -40 -45 -83
-22 -43 -43 -80 -47 -83 -4 -2 -14 -17 -22 -32 -64 -121 -105 -196 -134 -247
-19 -33 -39 -68 -44 -78 -5 -10 -22 -41 -38 -70 -15 -29 -54 -101 -86 -162
-32 -60 -78 -145 -102 -187 -23 -43 -43 -80 -43 -82 0 -3 -14 -29 -31 -58 -18
-29 -51 -89 -74 -133 -23 -44 -46 -89 -52 -100 -6 -11 -26 -51 -44 -90 -19
-38 -36 -72 -39 -75 -3 -3 -21 -36 -40 -75 -19 -38 -37 -72 -40 -75 -3 -3 -21
-36 -41 -75 -56 -108 -74 -140 -79 -145 -3 -3 -21 -36 -40 -75 -19 -38 -38
-72 -41 -75 -3 -3 -16 -27 -30 -55 -13 -27 -26 -52 -29 -55 -7 -7 -55 -95 -97
-180 -21 -41 -40 -77 -43 -80 -3 -3 -16 -27 -30 -55 -14 -27 -27 -52 -30 -55
-5 -5 -21 -34 -74 -135 -17 -33 -34 -62 -38 -65 -3 -3 -10 -18 -13 -33 -4 -15
-10 -27 -14 -27 -3 0 -17 -24 -31 -52 -13 -29 -27 -55 -30 -58 -6 -6 -60 -110
-60 -117 0 -2 12 -3 27 -1 21 2 33 14 51 48 27 52 83 153 114 208 12 20 47 87
78 147 32 61 70 133 86 160 16 28 40 70 52 95 13 25 37 68 52 95 16 28 32 57
35 65 4 8 11 22 16 30 5 8 19 35 32 60 13 25 34 63 47 85 19 33 62 114 99 185
4 8 13 25 20 38 19 38 71 133 104 192 17 30 61 114 97 185 37 72 84 162 105
200 92 168 127 233 152 285 15 30 30 57 33 60 3 3 16 28 30 55 14 28 27 52 30
55 5 5 21 35 106 200 16 30 31 57 34 60 3 3 19 32 36 65 54 104 107 199 119
215 7 8 38 65 70 125 32 61 67 126 78 145 32 56 118 221 146 277 27 54 46 66
54 36 3 -10 18 -69 33 -131 l29 -113 -28 -47 c-15 -26 -44 -81 -64 -122 -21
-41 -40 -77 -43 -80 -3 -3 -13 -21 -24 -40 -10 -19 -32 -60 -48 -90 -17 -30
-50 -91 -73 -135 -23 -44 -57 -107 -75 -140 -18 -33 -48 -87 -65 -120 -18 -33
-48 -89 -68 -125 -19 -36 -43 -81 -53 -100 -11 -19 -21 -37 -24 -40 -3 -3 -14
-23 -25 -45 -11 -22 -33 -62 -49 -90 -16 -27 -55 -99 -86 -160 -31 -60 -66
-126 -76 -145 -11 -19 -38 -69 -60 -110 -21 -41 -42 -77 -45 -80 -4 -3 -10
-16 -14 -30 -4 -14 -11 -27 -15 -30 -4 -3 -31 -50 -60 -105 -29 -55 -70 -131
-90 -170 -21 -38 -46 -86 -56 -105 -11 -19 -21 -37 -24 -40 -3 -3 -21 -36 -40
-75 -19 -38 -38 -72 -41 -75 -3 -3 -16 -27 -30 -55 -13 -27 -26 -52 -29 -55
-3 -3 -18 -30 -33 -60 -15 -30 -45 -86 -67 -125 -22 -38 -52 -95 -67 -125 -15
-30 -31 -56 -35 -58 -5 -2 -8 -8 -8 -13 0 -5 -19 -42 -41 -82 -23 -40 -63
-114 -90 -164 l-49 -93 28 0 c23 0 33 9 60 56 18 31 32 60 32 66 0 5 14 29 30
53 17 24 30 50 30 59 0 8 4 17 9 21 10 5 52 82 162 290 34 66 72 136 84 155
11 19 36 67 55 105 19 39 37 72 40 75 6 6 11 15 70 125 23 44 55 103 70 130
15 28 52 97 83 155 30 58 72 137 93 175 22 39 48 88 59 110 11 22 22 42 26 45
3 3 20 34 38 70 32 61 51 96 120 223 32 58 65 120 133 247 89 167 116 216 148
275 18 33 52 96 75 140 24 44 54 100 67 125 14 25 42 77 63 115 21 39 49 90
63 115 14 25 32 60 41 78 17 37 35 37 39 1 2 -13 6 -31 9 -39 4 -8 12 -40 19
-70 7 -30 20 -83 30 -116 17 -60 17 -63 -1 -90 -21 -32 -48 -82 -110 -199 -23
-44 -55 -105 -72 -135 -17 -30 -49 -91 -73 -135 -23 -44 -46 -84 -50 -90 -4
-5 -38 -68 -75 -140 -37 -71 -71 -135 -75 -140 -5 -6 -26 -44 -48 -85 -50 -96
-110 -209 -152 -285 -18 -33 -55 -103 -83 -155 -110 -209 -197 -369 -217 -400
-5 -8 -16 -29 -24 -47 -8 -18 -34 -65 -57 -105 -24 -40 -53 -91 -64 -113 -12
-22 -38 -70 -58 -107 -21 -38 -53 -98 -74 -135 -68 -126 -80 -148 -113 -208
-37 -66 -110 -208 -110 -212 0 -2 14 -3 30 -3 19 0 30 5 30 14 0 8 3 16 8 18
4 2 22 32 41 68 84 162 96 185 101 190 3 3 16 28 30 55 14 28 28 52 32 55 3 3
10 18 13 33 4 15 11 27 15 27 4 0 10 8 13 17 3 10 25 52 48 93 23 41 48 86 55
100 8 14 14 30 14 37 0 6 3 13 8 15 4 2 15 19 26 38 10 19 32 60 49 90 16 30
56 105 87 165 32 61 74 139 94 175 21 36 42 77 49 93 6 15 15 27 19 27 4 0 8
9 8 20 0 11 4 20 9 20 5 0 13 10 17 23 4 12 10 24 13 27 3 3 19 30 34 60 15
30 42 82 60 115 48 87 113 207 165 305 25 47 64 119 86 160 23 41 51 93 61
115 11 22 23 42 26 45 3 3 22 39 44 80 21 41 49 91 61 110 13 19 24 42 24 51
0 9 7 22 15 29 8 7 15 19 15 26 0 8 4 14 9 14 5 0 12 14 16 30 4 17 10 30 14
30 3 0 12 14 18 31 15 38 34 34 47 -9 9 -31 -4 -74 -53 -187 -10 -22 -28 -67
-41 -100 -12 -33 -28 -74 -36 -92 -8 -17 -14 -37 -14 -45 0 -8 -4 -18 -8 -24
-5 -5 -30 -65 -57 -134 -50 -130 -70 -181 -85 -215 -5 -11 -19 -45 -30 -75
-11 -30 -25 -65 -30 -77 -38 -87 -58 -139 -82 -207 -11 -32 -27 -70 -34 -85
-8 -14 -14 -33 -14 -42 0 -8 -4 -19 -8 -25 -5 -5 -24 -49 -42 -99 -18 -49 -36
-94 -40 -100 -4 -5 -17 -39 -30 -75 -12 -36 -29 -74 -36 -85 -8 -11 -14 -28
-14 -37 0 -10 -4 -26 -10 -36 -17 -31 -50 -111 -50 -122 0 -5 -4 -18 -9 -28
-5 -9 -19 -42 -31 -72 -13 -30 -30 -73 -40 -95 -10 -22 -34 -85 -55 -140 -20
-55 -44 -114 -51 -132 -8 -17 -14 -38 -14 -47 0 -9 -4 -16 -10 -16 -5 0 -10
-6 -10 -12 0 -7 -14 -46 -30 -87 -17 -40 -30 -79 -30 -87 0 -11 33 -14 185
-14 158 0 185 2 185 15 0 8 4 15 8 15 5 0 14 10 21 22 6 13 20 37 31 53 11 17
23 38 26 48 4 9 10 17 14 17 5 0 11 9 15 19 7 24 49 40 186 75 l107 27 443 -4
c358 -3 463 -7 544 -21 141 -24 157 -30 185 -76 14 -22 27 -40 30 -40 3 0 16
-21 29 -47 55 -110 29 -98 205 -101 173 -3 171 -4 142 61 -8 18 -29 73 -46
122 -18 50 -39 104 -46 122 -8 17 -14 36 -14 42 0 6 -4 19 -9 29 -20 40 -39
89 -46 122 -4 19 -14 44 -21 55 -8 11 -14 29 -14 42 0 12 -4 25 -10 28 -5 3
-10 16 -10 29 0 12 -4 26 -9 31 -9 10 -31 68 -88 235 -14 41 -29 77 -34 78 -5
2 -9 13 -9 24 0 11 -6 34 -14 51 -8 18 -16 41 -19 52 -3 11 -15 45 -27 75 -11
30 -30 82 -41 115 -11 33 -24 68 -30 77 -5 10 -9 23 -9 30 -1 7 -9 31 -20 53
-11 22 -19 48 -20 57 0 9 -4 19 -9 22 -5 3 -12 21 -15 40 -4 20 -13 48 -21 63
-8 15 -15 32 -15 36 0 4 -18 58 -41 120 -23 62 -55 150 -71 197 -17 47 -34 94
-39 105 -5 11 -15 38 -22 60 -25 73 -109 300 -118 320 -27 61 -30 176 -3 134
20 -30 34 -56 63 -114 17 -33 45 -85 62 -115 29 -51 87 -160 155 -290 16 -30
31 -57 34 -60 3 -3 11 -16 17 -30 7 -14 37 -70 68 -125 30 -55 67 -125 82
-155 15 -30 30 -57 33 -60 3 -3 18 -30 33 -60 15 -30 41 -77 57 -105 16 -27
32 -57 36 -65 3 -8 9 -22 14 -30 5 -8 20 -35 32 -60 13 -25 25 -47 28 -50 3
-3 15 -25 28 -50 13 -25 38 -72 56 -105 17 -33 55 -103 83 -155 54 -102 91
-170 143 -265 18 -33 48 -87 65 -120 17 -33 51 -96 75 -140 23 -44 52 -98 64
-120 11 -22 23 -42 26 -45 20 -20 52 -101 47 -119 -3 -11 0 -21 5 -21 6 0 17
-8 25 -17 19 -25 55 -105 49 -111 -10 -9 43 -42 68 -42 30 0 32 7 11 34 -8 11
-15 26 -15 34 0 8 -18 41 -40 74 -22 33 -40 68 -40 78 0 10 -7 24 -16 31 -9 7
-26 32 -38 55 -73 145 -121 234 -183 344 -38 69 -99 181 -135 250 -36 69 -75
141 -87 160 -12 19 -33 59 -47 87 -14 29 -30 55 -35 58 -5 4 -9 15 -9 26 0 10
-4 19 -10 19 -5 0 -10 4 -10 10 0 5 -22 49 -49 97 -26 49 -67 124 -91 168 -24
44 -53 98 -65 120 -101 186 -214 394 -273 505 -24 47 -48 90 -52 95 -4 6 -28
48 -52 95 -25 47 -60 112 -78 145 -40 71 -87 159 -108 199 -16 32 -17 74 -3
151 28 144 47 204 60 189 5 -5 29 -47 54 -94 24 -47 61 -116 82 -155 21 -38
50 -92 64 -120 14 -27 29 -52 32 -55 4 -3 11 -18 14 -33 4 -15 11 -27 15 -27
4 0 10 -8 14 -17 3 -10 28 -58 56 -108 27 -49 60 -110 72 -135 13 -25 25 -47
28 -50 3 -3 23 -41 45 -85 22 -44 47 -91 56 -105 15 -23 86 -155 150 -280 16
-30 29 -60 29 -67 0 -6 3 -13 8 -15 4 -1 19 -25 33 -53 14 -27 43 -81 64 -120
63 -115 131 -244 183 -345 26 -52 60 -113 73 -135 14 -22 39 -67 56 -100 73
-140 101 -190 122 -211 11 -12 21 -27 21 -33 0 -7 12 -33 26 -59 69 -123 110
-201 141 -267 10 -22 21 -41 26 -43 4 -2 7 -11 7 -20 0 -10 9 -28 20 -42 11
-14 20 -32 20 -42 0 -9 4 -18 9 -20 10 -4 91 -134 91 -147 0 -18 32 -41 56
-41 24 0 24 1 -24 93 -56 106 -59 112 -98 192 -16 33 -32 62 -35 65 -4 3 -15
24 -25 47 -10 24 -22 43 -26 43 -3 0 -17 21 -30 47 -13 27 -25 50 -28 53 -3 3
-11 16 -18 30 -6 14 -26 50 -44 81 -18 31 -52 92 -76 135 -24 44 -47 86 -52
94 -5 8 -27 51 -50 95 -23 44 -51 96 -62 115 -18 31 -88 160 -125 230 -7 14
-13 31 -13 38 0 6 -4 12 -8 12 -4 0 -15 15 -24 33 -15 32 -38 75 -113 212 -21
39 -56 106 -79 150 -23 44 -43 82 -46 85 -3 3 -16 28 -30 55 -14 28 -27 52
-30 55 -3 3 -27 48 -54 100 -27 52 -55 102 -62 111 -8 8 -14 23 -14 32 0 9 -4
17 -8 17 -4 0 -13 12 -19 28 -7 15 -37 72 -68 127 -30 55 -67 125 -82 155 -16
30 -31 57 -35 58 -5 2 -8 10 -8 17 0 8 -6 20 -12 27 -7 7 -31 49 -54 93 -23
44 -60 116 -84 160 -24 44 -58 109 -77 145 -20 36 -40 71 -45 78 -10 12 -6 36
23 137 5 17 11 51 14 78 8 58 24 60 50 4 11 -23 22 -44 25 -47 3 -3 22 -39 43
-80 40 -79 59 -112 67 -120 3 -3 27 -48 54 -100 56 -111 108 -209 158 -300 20
-36 44 -81 54 -100 11 -19 21 -37 24 -40 3 -3 21 -36 40 -75 19 -38 37 -72 40
-75 4 -4 48 -86 99 -185 9 -16 18 -32 21 -35 3 -3 21 -36 40 -75 19 -38 37
-72 40 -75 3 -3 16 -27 30 -55 14 -27 27 -52 30 -55 5 -5 15 -23 73 -130 16
-30 33 -59 37 -65 4 -5 30 -53 58 -105 27 -52 63 -118 79 -145 17 -28 54 -96
83 -150 29 -55 70 -129 90 -165 21 -36 56 -99 78 -141 51 -98 66 -123 73 -129
4 -3 10 -16 14 -30 8 -27 205 -432 215 -440 3 -3 11 -16 18 -30 7 -14 30 -54
52 -90 22 -36 53 -90 68 -120 15 -30 29 -57 32 -60 3 -3 17 -28 31 -55 22 -42
31 -51 57 -53 l32 -3 -33 59 c-17 33 -60 110 -94 172 -35 63 -63 117 -63 121
0 3 -7 12 -15 19 -8 7 -15 21 -15 31 0 11 -14 45 -31 77 -60 109 -69 126 -69
139 0 7 -8 17 -18 22 -10 5 -29 30 -42 56 -14 26 -31 56 -37 68 -7 12 -13 31
-13 41 0 11 -15 47 -34 80 -18 34 -46 84 -61 111 -15 28 -46 84 -68 125 -22
41 -43 80 -47 85 -5 6 -28 48 -53 95 -75 142 -82 155 -87 160 -3 3 -27 48 -54
100 -27 52 -52 97 -55 100 -3 3 -17 28 -31 55 -14 28 -28 52 -31 55 -4 3 -9
15 -13 26 -4 12 -17 33 -29 46 -12 14 -42 64 -66 113 -25 48 -50 92 -55 99 -6
6 -23 36 -38 66 -36 73 -120 229 -216 404 -43 77 -86 157 -95 176 -10 19 -36
67 -57 105 -22 39 -49 88 -61 110 -11 22 -35 67 -53 100 -18 33 -52 96 -76
140 -23 44 -53 98 -65 120 -92 163 -97 177 -92 224 7 55 22 130 38 189 9 34
14 40 25 31 8 -6 14 -15 14 -20 0 -5 11 -27 24 -47 13 -21 45 -78 70 -125 25
-48 67 -126 93 -174 25 -49 62 -117 81 -153 19 -36 52 -96 73 -135 21 -38 51
-95 66 -125 15 -30 30 -57 33 -60 3 -3 17 -27 31 -55 15 -27 44 -81 64 -120
21 -38 52 -97 69 -130 17 -33 33 -62 36 -65 3 -3 13 -21 24 -40 10 -19 40 -75
66 -125 26 -49 61 -115 76 -145 16 -30 31 -57 34 -60 3 -3 19 -32 36 -65 48
-93 105 -197 124 -225 9 -14 23 -38 32 -55 8 -16 28 -55 45 -85 26 -46 86
-157 140 -260 7 -14 13 -30 13 -37 0 -6 4 -13 9 -15 9 -3 36 -52 122 -218 24
-47 46 -87 49 -90 25 -25 151 -285 146 -303 -2 -9 4 -23 13 -30 10 -6 26 -30
36 -52 11 -22 21 -42 25 -45 3 -3 16 -29 30 -58 13 -29 29 -56 36 -60 12 -7
26 -31 134 -237 31 -60 70 -132 85 -160 15 -27 35 -65 44 -82 8 -18 19 -33 23
-33 4 0 8 -7 8 -15 0 -10 10 -15 31 -15 17 0 29 3 27 8 -32 67 -65 128 -70
130 -5 2 -8 9 -8 16 0 6 -11 28 -24 47 -14 20 -28 48 -32 63 -3 14 -9 26 -13
26 -4 0 -18 21 -31 48 -13 26 -33 63 -45 82 -12 19 -26 46 -30 60 -4 14 -11
27 -15 30 -11 9 -50 95 -50 113 0 9 -3 17 -8 17 -4 0 -16 17 -27 38 -11 20
-22 39 -25 42 -3 3 -16 27 -30 54 -38 74 -52 100 -59 106 -4 3 -22 37 -41 75
-19 39 -37 72 -40 75 -3 3 -11 16 -18 30 -6 14 -32 61 -56 105 -24 44 -57 105
-73 135 -16 30 -47 87 -68 125 -21 39 -51 95 -67 125 -16 30 -38 71 -50 90
-11 19 -43 78 -70 130 -27 52 -53 99 -57 105 -5 5 -30 51 -56 100 -83 156
-107 200 -115 210 -4 6 -33 60 -65 120 -101 191 -174 326 -210 390 -13 22 -41
74 -63 115 -21 41 -59 111 -83 155 -24 44 -53 98 -64 120 -11 22 -22 42 -25
45 -3 3 -15 25 -28 50 -12 25 -38 74 -58 110 -64 114 -130 237 -223 413 l-63
118 16 72 c9 40 19 82 22 95 7 25 -7 29 -33 8 -10 -8 -44 -36 -75 -61 -32 -25
-58 -52 -58 -59 0 -16 -32 -86 -62 -136 -11 -19 -42 -75 -68 -125 -26 -49 -70
-133 -98 -185 l-50 -95 -74 -3 -73 -3 -37 63 c-20 35 -57 104 -83 153 -26 50
-74 138 -106 197 -33 59 -59 116 -59 127 0 13 -26 39 -82 79 -46 32 -94 65
-107 72 l-24 12 7 -50z m334 -462 c21 -41 51 -97 66 -124 14 -27 26 -53 26
-57 0 -5 -20 -9 -44 -9 l-44 0 -27 113 c-15 61 -30 119 -35 127 -9 18 -1 45
10 33 5 -4 26 -42 48 -83z m370 -372 c36 -22 36 -21 18 -106 -19 -89 -29 -95
-59 -36 -14 27 -34 67 -46 89 -24 45 -27 71 -8 78 18 7 58 -3 95 -25z m-180 0
c4 -22 -88 -188 -104 -188 -11 0 -44 115 -44 156 0 27 17 41 55 47 56 8 90 3
93 -15z m88 -140 c72 -136 69 -122 49 -186 -9 -31 -22 -78 -29 -104 -6 -26
-16 -51 -21 -56 -6 -6 -35 -7 -66 -5 -65 6 -67 8 -93 118 -18 77 -20 102 -8
107 4 2 29 47 57 101 27 53 55 97 61 97 6 0 29 -33 50 -72z m-15 -547 c8 -7
113 -323 123 -368 4 -18 12 -35 17 -38 5 -4 9 -15 9 -26 0 -10 4 -27 9 -37 5
-9 30 -84 56 -167 26 -82 54 -164 61 -182 8 -17 14 -35 14 -40 -1 -7 114 -364
130 -408 5 -11 36 -108 70 -215 35 -107 87 -267 116 -355 30 -87 54 -170 54
-182 l0 -23 -685 0 -685 0 0 28 c1 15 7 45 15 67 8 22 15 46 15 53 0 8 6 28
13 45 13 31 96 284 125 382 8 28 19 59 23 70 15 40 67 201 84 260 9 33 20 65
25 70 4 6 11 26 14 45 4 19 11 44 16 55 5 11 18 49 29 85 39 124 161 505 171
535 4 11 17 52 29 90 13 39 26 79 30 90 18 45 41 121 41 134 0 26 32 52 54 45
12 -3 24 -9 27 -13z"/>
<path d="M1915 1883 c-16 -2 -56 -14 -88 -25 -66 -24 -121 -79 -137 -137 -6
-21 -10 -203 -10 -437 l0 -401 26 -39 c15 -21 30 -41 35 -42 5 -2 15 -9 22
-15 25 -24 84 -46 152 -59 95 -17 450 -17 535 0 73 15 140 41 140 54 0 4 5 8
11 8 14 0 36 26 50 60 6 14 13 80 15 148 l3 122 -104 1 c-58 1 -133 2 -167 3
l-63 1 0 -124 c-1 -123 -1 -123 -29 -146 -30 -24 -101 -39 -144 -29 -38 8 -87
31 -100 47 -8 9 -11 144 -12 433 -1 230 -4 456 -7 502 l-6 82 -46 -1 c-25 -1
-59 -4 -76 -6z"/>
<path d="M2080 1884 c0 -5 35 -41 77 -79 43 -39 99 -91 125 -117 46 -45 48
-50 48 -103 l0 -55 168 0 169 0 1 107 c0 122 -11 159 -56 191 -54 39 -135 53
-339 59 -116 4 -193 2 -193 -3z"/>
<path d="M3650 1880 c-94 -16 -174 -71 -203 -139 -17 -41 -20 -835 -3 -875 46
-108 193 -156 481 -156 223 0 371 28 435 82 44 37 53 70 58 200 l5 127 -163 3
c-89 2 -166 0 -171 -3 -5 -3 -7 -52 -5 -109 5 -125 -4 -150 -66 -174 -71 -29
-175 -5 -208 48 -11 17 -14 109 -16 451 -1 237 -3 458 -3 493 l-1 62 -47 -1
c-27 -1 -68 -5 -93 -9z"/>
<path d="M3838 1885 c-8 -9 157 -172 182 -180 30 -11 54 -58 58 -117 l4 -58
170 0 170 0 -3 124 -4 125 -38 33 c-60 54 -131 69 -346 75 -102 3 -189 2 -193
-2z"/>
<path d="M4859 1879 c-125 -11 -181 -36 -223 -102 -19 -29 -21 -47 -21 -206
l0 -173 48 -44 c57 -52 160 -86 297 -99 71 -7 177 -30 219 -48 62 -26 61 -22
61 -244 0 -171 -2 -203 -15 -203 -8 0 -22 8 -32 18 -10 10 -50 44 -89 75 -40
32 -97 82 -129 111 -50 47 -56 58 -53 87 3 32 2 33 -42 41 -25 4 -94 6 -155 4
l-110 -4 -3 -109 c-3 -129 10 -162 80 -206 93 -58 397 -83 613 -51 129 19 172
35 221 82 56 54 68 103 62 266 -6 141 -16 186 -52 221 -21 22 -124 64 -177 74
-30 6 -90 17 -134 25 -44 9 -114 21 -155 27 -61 10 -80 17 -102 40 -16 16 -28
37 -28 48 0 10 -2 96 -4 190 -2 127 0 171 9 171 6 0 32 -18 56 -41 24 -23 77
-71 118 -107 129 -116 131 -118 131 -157 l0 -35 149 0 149 0 7 84 c4 46 4 98
0 116 -10 47 -72 103 -136 124 -100 33 -349 44 -560 25z"/>
<path d="M2886 1865 c-3 -8 -6 -265 -6 -572 l-2 -558 175 -3 175 -2 -3 507
c-2 280 -4 538 -4 576 l-1 67 -164 0 c-135 0 -165 -3 -170 -15z"/>
<path d="M5790 1808 c-1 -40 -2 -299 -4 -576 l-3 -502 176 2 176 3 -3 199 c-2
155 0 201 10 208 7 5 65 6 128 2 81 -4 148 -1 225 10 155 22 214 54 261 141
27 50 27 51 25 229 -2 192 -8 217 -58 264 -68 63 -215 95 -423 90 l-135 -3 40
-39 c22 -21 84 -79 138 -129 84 -78 100 -98 114 -144 14 -44 15 -64 6 -123
-19 -123 -40 -136 -225 -147 l-108 -6 0 281 c0 154 -3 287 -6 296 -5 14 -30
16 -170 16 l-164 0 0 -72z"/>
</g>
</svg>
